<mxfile host="app.diagrams.net" modified="2025-07-18T20:25:15.322Z" agent="Mozilla/5.0 (Macintosh; Intel Mac OS X 10_15_7) AppleWebKit/537.36 (KHTML, like Gecko) Chrome/138.0.0.0 Safari/537.36" version="24.6.2" etag="EZhkElwrL-DicjpIUDdZ" type="github">
  <diagram name="PÃ¡gina-1" id="C3tb24uOC0vuLplaj98r">
    <mxGraphModel>
      <root>
        <mxCell id="0" />
        <mxCell id="1" parent="0" />
      </root>
    </mxGraphModel>
  </diagram>
</mxfile>
